# xmcd CD database file
#
# Track frame offsets:
#	150
#	5902
#	22409
#	44603
#	58450
#	75902
#	87379
#	101544
#	114611
#	127080
#	144192
#	160184
#	170936
#	180798
#
# Disc length: 2625 seconds
#
# Revision: 2
# Processed by: cddbd v1.5PL3 Copyright (c) Steve Scherf et al.
# Submitted via: CDex 1.50
#
DISCID=c20a3f0e
DTITLE=Eric Clapton - Eric Clapton and Friends
DYEAR=1900
DGENRE=Rock
TTITLE0=Choker
TTITLE1=Early In The Morning
TTITLE2=The First Time I Met The Blues
TTITLE3=Jeff's Blues
TTITLE4=Big Boss Man
TTITLE5=Snake Drive
TTITLE6=Draggin' My Tail
TTITLE7=Freight Loader
TTITLE8=Highway
TTITLE9=(They Call It) Stormy Monday Blues
TTITLE10=Train Kept A- Rollin'
TTITLE11=West Coast Idea
TTITLE12=Tribute To  Elmore
TTITLE13=Little Red Rooster
EXTD=
EXTT0=
EXTT1=
EXTT2=
EXTT3=
EXTT4=
EXTT5=
EXTT6=
EXTT7=
EXTT8=
EXTT9=
EXTT10=
EXTT11=
EXTT12=
EXTT13=
PLAYORDER=
